<svg xmlns="http://www.w3.org/2000/svg" xmlns:xlink="http://www.w3.org/1999/xlink" xmlns:inkscape="http://www.inkscape.org/namespaces/inkscape" version="1.1" width="966.81417" height="978.7787" viewBox="0 0 966.81417 978.7787">
<path transform="matrix(1,0,0,-1,0,978.7787)" stroke-width=".2" stroke-linecap="butt" stroke-miterlimit="10" stroke-linejoin="miter" fill="none" stroke="#00a650" d="M265.13938 621.51339H701.6748"/>
<path transform="matrix(1,0,0,-1,0,978.7787)" stroke-width=".2" stroke-linecap="butt" stroke-miterlimit="10" stroke-linejoin="miter" fill="none" stroke="#00a650" d="M701.6748 352.22203H265.13938V621.51339"/>
<path transform="matrix(1,0,0,-1,0,978.7787)" stroke-width=".2" stroke-linecap="butt" stroke-miterlimit="10" stroke-linejoin="miter" fill="none" stroke="#00a650" d="M701.6748 621.51339V352.22203"/>
<path transform="matrix(1,0,0,-1,0,978.7787)" stroke-width=".2" stroke-linecap="butt" stroke-miterlimit="10" stroke-linejoin="miter" fill="none" stroke="#ed1c24" d="M701.6748 306.86769V352.22203"/>
<path transform="matrix(1,0,0,-1,0,978.7787)" stroke-width=".2" stroke-linecap="butt" stroke-miterlimit="10" stroke-linejoin="miter" fill="none" stroke="#ed1c24" d="M265.13938 352.22203V306.86769L267.97404 304.03303V193.48186"/>
<path transform="matrix(1,0,0,-1,0,978.7787)" stroke-width=".2" stroke-linecap="butt" stroke-miterlimit="10" stroke-linejoin="miter" fill="none" stroke="#ed1c24" d="M701.6748 306.86769 698.84017 304.03303V193.48186 148.12752"/>
<path transform="matrix(1,0,0,-1,0,978.7787)" stroke-width=".2" stroke-linecap="butt" stroke-miterlimit="10" stroke-linejoin="miter" fill="none" stroke="#ed1c24" d="M267.97404 193.48186V148.12752"/>
<path transform="matrix(1,0,0,-1,0,978.7787)" stroke-width=".2" stroke-linecap="butt" stroke-miterlimit="10" stroke-linejoin="miter" fill="none" stroke="#ed1c24" d="M603.8795 148.12752V193.48186"/>
<path transform="matrix(1,0,0,-1,0,978.7787)" stroke-width=".2" stroke-linecap="butt" stroke-miterlimit="10" stroke-linejoin="miter" fill="none" stroke="#ed1c24" d="M479.15513 148.12752V193.48186"/>
<path transform="matrix(1,0,0,-1,0,978.7787)" stroke-width=".2" stroke-linecap="butt" stroke-miterlimit="10" stroke-linejoin="miter" fill="none" stroke="#ed1c24" d="M343.68315 187.81256V193.48186"/>
<path transform="matrix(1,0,0,-1,0,978.7787)" stroke-width=".2" stroke-linecap="butt" stroke-miterlimit="10" stroke-linejoin="miter" fill="none" stroke="#ed1c24" d="M373.68223 187.81256V193.48186"/>
<path transform="matrix(1,0,0,-1,0,978.7787)" stroke-width=".2" stroke-linecap="butt" stroke-miterlimit="10" stroke-linejoin="miter" fill="none" stroke="#ed1c24" d="M343.68315 153.79682V148.12752"/>
<path transform="matrix(1,0,0,-1,0,978.7787)" stroke-width=".2" stroke-linecap="butt" stroke-miterlimit="10" stroke-linejoin="miter" fill="none" stroke="#ed1c24" d="M373.68223 153.79682V148.12752"/>
<path transform="matrix(1,0,0,-1,0,978.7787)" stroke-width=".2" stroke-linecap="butt" stroke-miterlimit="10" stroke-linejoin="miter" fill="none" stroke="#ed1c24" d="M343.68315 187.81256C334.28996 179.52855 333.39079 165.19835 341.6748 155.80516 342.30165 155.0944 342.97239 154.42365 343.68315 153.79682"/>
<path transform="matrix(1,0,0,-1,0,978.7787)" stroke-width=".2" stroke-linecap="butt" stroke-miterlimit="10" stroke-linejoin="miter" fill="none" stroke="#ed1c24" d="M373.68223 153.79682C383.0754 162.08083 383.97459 176.41103 375.69056 185.80423 375.06373 186.51497 374.39299 187.18573 373.68223 187.81256"/>
<path transform="matrix(1,0,0,-1,0,978.7787)" stroke-width=".2" stroke-linecap="butt" stroke-miterlimit="10" stroke-linejoin="miter" fill="none" stroke="#ed1c24" d="M373.68223 193.48186H343.68315"/>
<path transform="matrix(1,0,0,-1,0,978.7787)" stroke-width=".2" stroke-linecap="butt" stroke-miterlimit="10" stroke-linejoin="miter" fill="none" stroke="#00a650" d="M343.68315 193.48186H267.97404"/>
<path transform="matrix(1,0,0,-1,0,978.7787)" stroke-width=".2" stroke-linecap="butt" stroke-miterlimit="10" stroke-linejoin="miter" fill="none" stroke="#00a650" d="M267.97404 148.12752H343.68315"/>
<path transform="matrix(1,0,0,-1,0,978.7787)" stroke-width=".2" stroke-linecap="butt" stroke-miterlimit="10" stroke-linejoin="miter" fill="none" stroke="#ed1c24" d="M343.68315 148.12752H373.68223"/>
<path transform="matrix(1,0,0,-1,0,978.7787)" stroke-width=".2" stroke-linecap="butt" stroke-miterlimit="10" stroke-linejoin="miter" fill="none" stroke="#00a650" d="M698.84017 193.48186H603.8795"/>
<path transform="matrix(1,0,0,-1,0,978.7787)" stroke-width=".2" stroke-linecap="butt" stroke-miterlimit="10" stroke-linejoin="miter" fill="none" stroke="#00a650" d="M479.15513 193.48186H373.68223"/>
<path transform="matrix(1,0,0,-1,0,978.7787)" stroke-width=".2" stroke-linecap="butt" stroke-miterlimit="10" stroke-linejoin="miter" fill="none" stroke="#00a650" d="M373.68223 148.12752H479.15513"/>
<path transform="matrix(1,0,0,-1,0,978.7787)" stroke-width=".2" stroke-linecap="butt" stroke-miterlimit="10" stroke-linejoin="miter" fill="none" stroke="#ed1c24" d="M479.15513 148.12752H603.8795"/>
<path transform="matrix(1,0,0,-1,0,978.7787)" stroke-width=".2" stroke-linecap="butt" stroke-miterlimit="10" stroke-linejoin="miter" fill="none" stroke="#00a650" d="M603.8795 148.12752H698.84017"/>
<path transform="matrix(1,0,0,-1,0,978.7787)" stroke-width=".2" stroke-linecap="butt" stroke-miterlimit="10" stroke-linejoin="miter" fill="none" stroke="#ed1c24" d="M267.97404 148.12752V65.9228"/>
<path transform="matrix(1,0,0,-1,0,978.7787)" stroke-width=".2" stroke-linecap="butt" stroke-miterlimit="10" stroke-linejoin="miter" fill="none" stroke="#00a650" d="M267.97404 65.9228H412.54096"/>
<path transform="matrix(1,0,0,-1,0,978.7787)" stroke-width=".2" stroke-linecap="butt" stroke-miterlimit="10" stroke-linejoin="miter" fill="none" stroke="#3d7c94" d="M389.86378 20.568467H267.97404"/>
<path transform="matrix(1,0,0,-1,0,978.7787)" stroke-width=".2" stroke-linecap="butt" stroke-miterlimit="10" stroke-linejoin="miter" fill="none" stroke="#ed1c24" d="M267.97404 20.568467V65.9228"/>
<path transform="matrix(1,0,0,-1,0,978.7787)" stroke-width=".2" stroke-linecap="butt" stroke-miterlimit="10" stroke-linejoin="miter" fill="none" stroke="#ed1c24" d="M412.54096 65.9228V43.245634"/>
<path transform="matrix(1,0,0,-1,0,978.7787)" stroke-width=".2" stroke-linecap="butt" stroke-miterlimit="10" stroke-linejoin="miter" fill="none" stroke="#ed1c24" d="M267.97404 20.568467V.1H389.86378"/>
<path transform="matrix(1,0,0,-1,0,978.7787)" stroke-width=".2" stroke-linecap="butt" stroke-miterlimit="10" stroke-linejoin="miter" fill="none" stroke="#ed1c24" d="M698.84017 148.12752V105.607837H412.54096V65.9228"/>
<path transform="matrix(1,0,0,-1,0,978.7787)" stroke-width=".2" stroke-linecap="butt" stroke-miterlimit="10" stroke-linejoin="miter" fill="none" stroke="#00a650" d="M748.4465 352.22203V621.51339"/>
<path transform="matrix(1,0,0,-1,0,978.7787)" stroke-width=".2" stroke-linecap="butt" stroke-miterlimit="10" stroke-linejoin="miter" fill="none" stroke="#ed1c24" d="M748.4465 621.51339H701.6748"/>
<path transform="matrix(1,0,0,-1,0,978.7787)" stroke-width=".2" stroke-linecap="butt" stroke-miterlimit="10" stroke-linejoin="miter" fill="none" stroke="#ed1c24" d="M701.6748 352.22203H748.4465"/>
<path transform="matrix(1,0,0,-1,0,978.7787)" stroke-width=".2" stroke-linecap="butt" stroke-miterlimit="10" stroke-linejoin="miter" fill="none" stroke="#ed1c24" d="M748.4465 621.51339 754.1157 615.84408H966.7142"/>
<path transform="matrix(1,0,0,-1,0,978.7787)" stroke-width=".2" stroke-linecap="butt" stroke-miterlimit="10" stroke-linejoin="miter" fill="none" stroke="#ed1c24" d="M748.4465 352.22203 754.1157 357.8913H966.7142V615.84408"/>
<path transform="matrix(1,0,0,-1,0,978.7787)" stroke-width=".2" stroke-linecap="butt" stroke-miterlimit="10" stroke-linejoin="miter" fill="none" stroke="#00a650" d="M218.36772 352.22203V621.51339"/>
<path transform="matrix(1,0,0,-1,0,978.7787)" stroke-width=".2" stroke-linecap="butt" stroke-miterlimit="10" stroke-linejoin="miter" fill="none" stroke="#ed1c24" d="M218.36772 621.51339H265.13938"/>
<path transform="matrix(1,0,0,-1,0,978.7787)" stroke-width=".2" stroke-linecap="butt" stroke-miterlimit="10" stroke-linejoin="miter" fill="none" stroke="#ed1c24" d="M265.13938 352.22203H218.36772"/>
<path transform="matrix(1,0,0,-1,0,978.7787)" stroke-width=".2" stroke-linecap="butt" stroke-miterlimit="10" stroke-linejoin="miter" fill="none" stroke="#ed1c24" d="M218.36772 621.51339 212.69843 615.84408H.1"/>
<path transform="matrix(1,0,0,-1,0,978.7787)" stroke-width=".2" stroke-linecap="butt" stroke-miterlimit="10" stroke-linejoin="miter" fill="none" stroke="#ed1c24" d="M218.36772 352.22203 212.69843 357.8913H.1V615.84408"/>
<path transform="matrix(1,0,0,-1,0,978.7787)" stroke-width=".2" stroke-linecap="butt" stroke-miterlimit="10" stroke-linejoin="miter" fill="none" stroke="#ed1c24" d="M395.53309 309.70234V306.86769"/>
<path transform="matrix(1,0,0,-1,0,978.7787)" stroke-width=".2" stroke-linecap="butt" stroke-miterlimit="10" stroke-linejoin="miter" fill="none" stroke="#ed1c24" d="M398.3677 304.03303H568.4465"/>
<path transform="matrix(1,0,0,-1,0,978.7787)" stroke-width=".2" stroke-linecap="butt" stroke-miterlimit="10" stroke-linejoin="miter" fill="none" stroke="#ed1c24" d="M571.2811 306.86769V309.70234"/>
<path transform="matrix(1,0,0,-1,0,978.7787)" stroke-width=".2" stroke-linecap="butt" stroke-miterlimit="10" stroke-linejoin="miter" fill="none" stroke="#00a650" d="M265.13938 306.86769H395.53309"/>
<path transform="matrix(1,0,0,-1,0,978.7787)" stroke-width=".2" stroke-linecap="butt" stroke-miterlimit="10" stroke-linejoin="miter" fill="none" stroke="#00a650" d="M571.2811 306.86769H701.6748"/>
<path transform="matrix(1,0,0,-1,0,978.7787)" stroke-width=".2" stroke-linecap="butt" stroke-miterlimit="10" stroke-linejoin="miter" fill="none" stroke="#00a650" d="M701.6748 669.70236H265.13938"/>
<path transform="matrix(1,0,0,-1,0,978.7787)" stroke-width=".2" stroke-linecap="butt" stroke-miterlimit="10" stroke-linejoin="miter" fill="none" stroke="#ed1c24" d="M265.13938 669.70236V621.51339"/>
<path transform="matrix(1,0,0,-1,0,978.7787)" stroke-width=".2" stroke-linecap="butt" stroke-miterlimit="10" stroke-linejoin="miter" fill="none" stroke="#ed1c24" d="M701.6748 621.51339V669.70236 938.99368"/>
<path transform="matrix(1,0,0,-1,0,978.7787)" stroke-width=".2" stroke-linecap="butt" stroke-miterlimit="10" stroke-linejoin="miter" fill="none" stroke="#ed1c24" d="M265.13938 669.70236V938.99368"/>
<path transform="matrix(1,0,0,-1,0,978.7787)" stroke-width=".2" stroke-linecap="butt" stroke-miterlimit="10" stroke-linejoin="miter" fill="none" stroke="#ed1c24" d="M395.53309 938.99368V958.8362"/>
<path transform="matrix(1,0,0,-1,0,978.7787)" stroke-width=".2" stroke-linecap="butt" stroke-miterlimit="10" stroke-linejoin="miter" fill="none" stroke="#ed1c24" d="M415.37559 978.6787H551.4386"/>
<path transform="matrix(1,0,0,-1,0,978.7787)" stroke-width=".2" stroke-linecap="butt" stroke-miterlimit="10" stroke-linejoin="miter" fill="none" stroke="#ed1c24" d="M571.2811 958.8362V938.99368"/>
<path transform="matrix(1,0,0,-1,0,978.7787)" stroke-width=".2" stroke-linecap="butt" stroke-miterlimit="10" stroke-linejoin="miter" fill="none" stroke="#ed1c24" d="M395.53309 958.8362C395.53309 969.7949 404.41688 978.6787 415.37559 978.6787"/>
<path transform="matrix(1,0,0,-1,0,978.7787)" stroke-width=".2" stroke-linecap="butt" stroke-miterlimit="10" stroke-linejoin="miter" fill="none" stroke="#ed1c24" d="M551.4386 978.6787C562.3973 978.6787 571.2811 969.7949 571.2811 958.8362"/>
<path transform="matrix(1,0,0,-1,0,978.7787)" stroke-width=".2" stroke-linecap="butt" stroke-miterlimit="10" stroke-linejoin="miter" fill="none" stroke="#ed1c24" d="M265.13938 938.99368H395.53309"/>
<path transform="matrix(1,0,0,-1,0,978.7787)" stroke-width=".2" stroke-linecap="butt" stroke-miterlimit="10" stroke-linejoin="miter" fill="none" stroke="#00a650" d="M395.53309 938.99368H571.2811"/>
<path transform="matrix(1,0,0,-1,0,978.7787)" stroke-width=".2" stroke-linecap="butt" stroke-miterlimit="10" stroke-linejoin="miter" fill="none" stroke="#ed1c24" d="M571.2811 938.99368H701.6748"/>
<path transform="matrix(1,0,0,-1,0,978.7787)" stroke-width=".2" stroke-linecap="butt" stroke-miterlimit="10" stroke-linejoin="miter" fill="none" stroke="#ed1c24" d="M395.53309 306.86769C395.53309 305.30216 396.8022 304.03303 398.3677 304.03303"/>
<path transform="matrix(1,0,0,-1,0,978.7787)" stroke-width=".2" stroke-linecap="butt" stroke-miterlimit="10" stroke-linejoin="miter" fill="none" stroke="#ed1c24" d="M568.4465 304.03303C570.01199 304.03303 571.2811 305.30216 571.2811 306.86769"/>
<path transform="matrix(1,0,0,-1,0,978.7787)" stroke-width=".2" stroke-linecap="butt" stroke-miterlimit="10" stroke-linejoin="miter" fill="none" stroke="#ed1c24" d="M389.86378 .1V20.568467L412.54096 43.245634"/>
<path transform="matrix(1,0,0,-1,0,978.7787)" stroke-width=".2" stroke-linecap="butt" stroke-miterlimit="10" stroke-linejoin="miter" fill="none" stroke="#ed1c24" d="M493.32835 199.15114V201.9858"/>
<path transform="matrix(1,0,0,-1,0,978.7787)" stroke-width=".2" stroke-linecap="butt" stroke-miterlimit="10" stroke-linejoin="miter" fill="none" stroke="#ed1c24" d="M589.7063 199.15114V201.9858"/>
<path transform="matrix(1,0,0,-1,0,978.7787)" stroke-width=".2" stroke-linecap="butt" stroke-miterlimit="10" stroke-linejoin="miter" fill="none" stroke="#ed1c24" d="M498.99766 207.65508H584.037"/>
<path transform="matrix(1,0,0,-1,0,978.7787)" stroke-width=".2" stroke-linecap="butt" stroke-miterlimit="10" stroke-linejoin="miter" fill="none" stroke="#ed1c24" d="M603.8795 193.48186H595.3756"/>
<path transform="matrix(1,0,0,-1,0,978.7787)" stroke-width=".2" stroke-linecap="butt" stroke-miterlimit="10" stroke-linejoin="miter" fill="none" stroke="#ed1c24" d="M479.15513 193.48186H487.65907C490.79014 193.48186 493.32835 196.02008 493.32835 199.15114"/>
<path transform="matrix(1,0,0,-1,0,978.7787)" stroke-width=".2" stroke-linecap="butt" stroke-miterlimit="10" stroke-linejoin="miter" fill="none" stroke="#ed1c24" d="M589.7063 199.15114C589.7063 196.02008 592.2445 193.48186 595.3756 193.48186"/>
<path transform="matrix(1,0,0,-1,0,978.7787)" stroke-width=".2" stroke-linecap="butt" stroke-miterlimit="10" stroke-linejoin="miter" fill="none" stroke="#ed1c24" d="M493.32835 201.9858C493.32835 205.11685 495.86659 207.65508 498.99766 207.65508"/>
<path transform="matrix(1,0,0,-1,0,978.7787)" stroke-width=".2" stroke-linecap="butt" stroke-miterlimit="10" stroke-linejoin="miter" fill="none" stroke="#ed1c24" d="M584.037 207.65508C587.1681 207.65508 589.7063 205.11685 589.7063 201.9858"/>
</svg>
